<mxfile host="app.diagrams.net" modified="2022-10-06T08:39:28.409Z" agent="5.0 (X11; Ubuntu)" etag="Pefl17moDdFyt7u_XadM" version="20.4.0" type="github">
  <diagram name="Page-1" id="9f46799a-70d6-7492-0946-bef42562c5a5">
    <mxGraphModel dx="1422" dy="793" grid="1" gridSize="10" guides="1" tooltips="1" connect="1" arrows="1" fold="1" page="1" pageScale="1" pageWidth="1100" pageHeight="850" background="none" math="0" shadow="0">
      <root>
        <mxCell id="0" />
        <mxCell id="1" parent="0" />
        <mxCell id="TK3HhR73lUiD1M2_CuVL-16" style="edgeStyle=orthogonalEdgeStyle;rounded=0;orthogonalLoop=1;jettySize=auto;html=1;exitX=1;exitY=0.5;exitDx=0;exitDy=0;entryX=0;entryY=0.5;entryDx=0;entryDy=0;curved=1;" edge="1" parent="1" source="TK3HhR73lUiD1M2_CuVL-13" target="TK3HhR73lUiD1M2_CuVL-14">
          <mxGeometry relative="1" as="geometry" />
        </mxCell>
        <mxCell id="TK3HhR73lUiD1M2_CuVL-17" style="edgeStyle=orthogonalEdgeStyle;rounded=0;orthogonalLoop=1;jettySize=auto;html=1;entryX=0;entryY=0.5;entryDx=0;entryDy=0;curved=1;" edge="1" parent="1" source="TK3HhR73lUiD1M2_CuVL-13" target="TK3HhR73lUiD1M2_CuVL-15">
          <mxGeometry relative="1" as="geometry" />
        </mxCell>
        <mxCell id="TK3HhR73lUiD1M2_CuVL-13" value="&lt;div&gt;TranslateScreen&lt;/div&gt;" style="html=1;" vertex="1" parent="1">
          <mxGeometry x="50" y="70" width="110" height="50" as="geometry" />
        </mxCell>
        <mxCell id="TK3HhR73lUiD1M2_CuVL-14" value="HistoryScreen" style="html=1;" vertex="1" parent="1">
          <mxGeometry x="200" y="20" width="110" height="50" as="geometry" />
        </mxCell>
        <mxCell id="TK3HhR73lUiD1M2_CuVL-15" value="SavedTranslations" style="html=1;" vertex="1" parent="1">
          <mxGeometry x="200" y="120" width="110" height="50" as="geometry" />
        </mxCell>
        <mxCell id="TK3HhR73lUiD1M2_CuVL-21" style="edgeStyle=orthogonalEdgeStyle;curved=1;rounded=0;orthogonalLoop=1;jettySize=auto;html=1;exitX=1;exitY=0.5;exitDx=0;exitDy=0;entryX=0;entryY=0.5;entryDx=0;entryDy=0;" edge="1" parent="1" source="TK3HhR73lUiD1M2_CuVL-18" target="TK3HhR73lUiD1M2_CuVL-19">
          <mxGeometry relative="1" as="geometry" />
        </mxCell>
        <mxCell id="TK3HhR73lUiD1M2_CuVL-22" style="edgeStyle=orthogonalEdgeStyle;curved=1;rounded=0;orthogonalLoop=1;jettySize=auto;html=1;exitX=1;exitY=0.5;exitDx=0;exitDy=0;entryX=0;entryY=0.5;entryDx=0;entryDy=0;" edge="1" parent="1" source="TK3HhR73lUiD1M2_CuVL-18" target="TK3HhR73lUiD1M2_CuVL-20">
          <mxGeometry relative="1" as="geometry" />
        </mxCell>
        <mxCell id="TK3HhR73lUiD1M2_CuVL-18" value="Login" style="html=1;" vertex="1" parent="1">
          <mxGeometry x="410" y="70" width="110" height="50" as="geometry" />
        </mxCell>
        <mxCell id="TK3HhR73lUiD1M2_CuVL-19" value="Register" style="html=1;" vertex="1" parent="1">
          <mxGeometry x="560" y="20" width="110" height="50" as="geometry" />
        </mxCell>
        <mxCell id="TK3HhR73lUiD1M2_CuVL-20" value="ForgotPassword" style="html=1;" vertex="1" parent="1">
          <mxGeometry x="560" y="120" width="110" height="50" as="geometry" />
        </mxCell>
        <mxCell id="TK3HhR73lUiD1M2_CuVL-52" style="edgeStyle=orthogonalEdgeStyle;curved=1;rounded=0;orthogonalLoop=1;jettySize=auto;html=1;exitX=0.5;exitY=1;exitDx=0;exitDy=0;entryX=0.5;entryY=0;entryDx=0;entryDy=0;" edge="1" parent="1" source="TK3HhR73lUiD1M2_CuVL-23" target="TK3HhR73lUiD1M2_CuVL-24">
          <mxGeometry relative="1" as="geometry" />
        </mxCell>
        <mxCell id="TK3HhR73lUiD1M2_CuVL-23" value="Typing" style="html=1;" vertex="1" parent="1">
          <mxGeometry x="90" y="220" width="110" height="50" as="geometry" />
        </mxCell>
        <mxCell id="TK3HhR73lUiD1M2_CuVL-53" style="edgeStyle=orthogonalEdgeStyle;curved=1;rounded=0;orthogonalLoop=1;jettySize=auto;html=1;exitX=0.5;exitY=1;exitDx=0;exitDy=0;entryX=0.5;entryY=0;entryDx=0;entryDy=0;" edge="1" parent="1" source="TK3HhR73lUiD1M2_CuVL-24" target="TK3HhR73lUiD1M2_CuVL-25">
          <mxGeometry relative="1" as="geometry" />
        </mxCell>
        <mxCell id="TK3HhR73lUiD1M2_CuVL-24" value="Commit" style="html=1;" vertex="1" parent="1">
          <mxGeometry x="90" y="310" width="110" height="50" as="geometry" />
        </mxCell>
        <mxCell id="TK3HhR73lUiD1M2_CuVL-54" style="edgeStyle=orthogonalEdgeStyle;curved=1;rounded=0;orthogonalLoop=1;jettySize=auto;html=1;exitX=0.5;exitY=1;exitDx=0;exitDy=0;" edge="1" parent="1" source="TK3HhR73lUiD1M2_CuVL-25" target="TK3HhR73lUiD1M2_CuVL-26">
          <mxGeometry relative="1" as="geometry" />
        </mxCell>
        <mxCell id="TK3HhR73lUiD1M2_CuVL-25" value="Translate" style="html=1;" vertex="1" parent="1">
          <mxGeometry x="90" y="400" width="110" height="50" as="geometry" />
        </mxCell>
        <mxCell id="TK3HhR73lUiD1M2_CuVL-26" value="Save" style="html=1;" vertex="1" parent="1">
          <mxGeometry x="90" y="490" width="110" height="50" as="geometry" />
        </mxCell>
        <mxCell id="TK3HhR73lUiD1M2_CuVL-45" style="edgeStyle=orthogonalEdgeStyle;curved=1;rounded=0;orthogonalLoop=1;jettySize=auto;html=1;exitX=0.75;exitY=1;exitDx=0;exitDy=0;entryX=0.75;entryY=0;entryDx=0;entryDy=0;" edge="1" parent="1" source="TK3HhR73lUiD1M2_CuVL-32" target="TK3HhR73lUiD1M2_CuVL-34">
          <mxGeometry relative="1" as="geometry" />
        </mxCell>
        <mxCell id="TK3HhR73lUiD1M2_CuVL-50" style="edgeStyle=orthogonalEdgeStyle;curved=1;rounded=0;orthogonalLoop=1;jettySize=auto;html=1;exitX=1;exitY=0.5;exitDx=0;exitDy=0;entryX=1;entryY=0.5;entryDx=0;entryDy=0;" edge="1" parent="1" source="TK3HhR73lUiD1M2_CuVL-32" target="TK3HhR73lUiD1M2_CuVL-33">
          <mxGeometry relative="1" as="geometry">
            <Array as="points">
              <mxPoint x="620" y="335" />
              <mxPoint x="620" y="505" />
            </Array>
          </mxGeometry>
        </mxCell>
        <mxCell id="TK3HhR73lUiD1M2_CuVL-65" value="&lt;div&gt;logged in&lt;/div&gt;" style="edgeLabel;html=1;align=center;verticalAlign=middle;resizable=0;points=[];" vertex="1" connectable="0" parent="TK3HhR73lUiD1M2_CuVL-50">
          <mxGeometry x="0.0581" y="-3" relative="1" as="geometry">
            <mxPoint y="-4" as="offset" />
          </mxGeometry>
        </mxCell>
        <mxCell id="TK3HhR73lUiD1M2_CuVL-61" style="edgeStyle=orthogonalEdgeStyle;curved=1;rounded=0;orthogonalLoop=1;jettySize=auto;html=1;exitX=0;exitY=0.5;exitDx=0;exitDy=0;entryX=0.5;entryY=0;entryDx=0;entryDy=0;" edge="1" parent="1" source="TK3HhR73lUiD1M2_CuVL-32" target="TK3HhR73lUiD1M2_CuVL-55">
          <mxGeometry relative="1" as="geometry" />
        </mxCell>
        <mxCell id="TK3HhR73lUiD1M2_CuVL-32" value="«interface»&lt;br&gt;&lt;b&gt;sqlite&lt;/b&gt;" style="html=1;" vertex="1" parent="1">
          <mxGeometry x="440" y="310" width="110" height="50" as="geometry" />
        </mxCell>
        <mxCell id="TK3HhR73lUiD1M2_CuVL-46" style="edgeStyle=orthogonalEdgeStyle;curved=1;rounded=0;orthogonalLoop=1;jettySize=auto;html=1;exitX=0.25;exitY=0;exitDx=0;exitDy=0;entryX=0.25;entryY=1;entryDx=0;entryDy=0;" edge="1" parent="1" source="TK3HhR73lUiD1M2_CuVL-33" target="TK3HhR73lUiD1M2_CuVL-34">
          <mxGeometry relative="1" as="geometry" />
        </mxCell>
        <mxCell id="TK3HhR73lUiD1M2_CuVL-63" style="edgeStyle=orthogonalEdgeStyle;curved=1;rounded=0;orthogonalLoop=1;jettySize=auto;html=1;exitX=0;exitY=0.5;exitDx=0;exitDy=0;entryX=0.5;entryY=1;entryDx=0;entryDy=0;" edge="1" parent="1" source="TK3HhR73lUiD1M2_CuVL-33" target="TK3HhR73lUiD1M2_CuVL-55">
          <mxGeometry relative="1" as="geometry" />
        </mxCell>
        <mxCell id="TK3HhR73lUiD1M2_CuVL-64" value="logged in" style="edgeLabel;html=1;align=center;verticalAlign=middle;resizable=0;points=[];" vertex="1" connectable="0" parent="TK3HhR73lUiD1M2_CuVL-63">
          <mxGeometry x="-0.15" y="-10" relative="1" as="geometry">
            <mxPoint as="offset" />
          </mxGeometry>
        </mxCell>
        <mxCell id="TK3HhR73lUiD1M2_CuVL-33" value="«interface»&lt;br&gt;&lt;b&gt;firestore&lt;/b&gt;" style="html=1;" vertex="1" parent="1">
          <mxGeometry x="440" y="480" width="110" height="50" as="geometry" />
        </mxCell>
        <mxCell id="TK3HhR73lUiD1M2_CuVL-44" style="edgeStyle=orthogonalEdgeStyle;curved=1;rounded=0;orthogonalLoop=1;jettySize=auto;html=1;exitX=0.25;exitY=0;exitDx=0;exitDy=0;entryX=0.25;entryY=1;entryDx=0;entryDy=0;" edge="1" parent="1" source="TK3HhR73lUiD1M2_CuVL-34" target="TK3HhR73lUiD1M2_CuVL-32">
          <mxGeometry relative="1" as="geometry" />
        </mxCell>
        <mxCell id="TK3HhR73lUiD1M2_CuVL-47" style="edgeStyle=orthogonalEdgeStyle;curved=1;rounded=0;orthogonalLoop=1;jettySize=auto;html=1;exitX=0.75;exitY=1;exitDx=0;exitDy=0;entryX=0.75;entryY=0;entryDx=0;entryDy=0;" edge="1" parent="1" source="TK3HhR73lUiD1M2_CuVL-34" target="TK3HhR73lUiD1M2_CuVL-33">
          <mxGeometry relative="1" as="geometry" />
        </mxCell>
        <mxCell id="TK3HhR73lUiD1M2_CuVL-62" style="edgeStyle=orthogonalEdgeStyle;curved=1;rounded=0;orthogonalLoop=1;jettySize=auto;html=1;exitX=0;exitY=0.5;exitDx=0;exitDy=0;entryX=1;entryY=0.5;entryDx=0;entryDy=0;" edge="1" parent="1" source="TK3HhR73lUiD1M2_CuVL-34" target="TK3HhR73lUiD1M2_CuVL-55">
          <mxGeometry relative="1" as="geometry">
            <Array as="points">
              <mxPoint x="400" y="425" />
              <mxPoint x="400" y="425" />
            </Array>
          </mxGeometry>
        </mxCell>
        <mxCell id="TK3HhR73lUiD1M2_CuVL-66" value="&lt;div&gt;not found&lt;/div&gt;" style="edgeLabel;html=1;align=center;verticalAlign=middle;resizable=0;points=[];" vertex="1" connectable="0" parent="TK3HhR73lUiD1M2_CuVL-62">
          <mxGeometry x="0.2889" y="1" relative="1" as="geometry">
            <mxPoint x="14" as="offset" />
          </mxGeometry>
        </mxCell>
        <mxCell id="TK3HhR73lUiD1M2_CuVL-34" value="«interface»&lt;br&gt;&lt;b&gt;translate-api-v2&lt;/b&gt;" style="html=1;" vertex="1" parent="1">
          <mxGeometry x="440" y="400" width="110" height="50" as="geometry" />
        </mxCell>
        <mxCell id="TK3HhR73lUiD1M2_CuVL-56" style="edgeStyle=orthogonalEdgeStyle;curved=1;rounded=0;orthogonalLoop=1;jettySize=auto;html=1;entryX=1;entryY=0.5;entryDx=0;entryDy=0;" edge="1" parent="1" source="TK3HhR73lUiD1M2_CuVL-55" target="TK3HhR73lUiD1M2_CuVL-25">
          <mxGeometry relative="1" as="geometry" />
        </mxCell>
        <mxCell id="TK3HhR73lUiD1M2_CuVL-55" value="«interface»&lt;br&gt;&lt;b&gt;translate&lt;/b&gt;" style="html=1;" vertex="1" parent="1">
          <mxGeometry x="240" y="400" width="110" height="50" as="geometry" />
        </mxCell>
      </root>
    </mxGraphModel>
  </diagram>
</mxfile>
